# xmcd
#
# Track frame offsets:
#	150
#	16385
#	30437
#	58215
#	73152
#	90347
#	104682
#	122500
#	145377
#	165972
#
# Disc length: 2438 seconds
#
# Revision: 9
# Processed by: cddbd v1.5.2PL0 Copyright (c) Steve Scherf et al.
# Submitted via: audiograbber 1.83.01
#
DISCID=8109840a
DTITLE=David Bowie - Heroes (Digital Remaster 1999)
DYEAR=1977
DGENRE=Rock
TTITLE0=Beauty And The Beast
TTITLE1=Joe The Lion
TTITLE2=''Heroes''
TTITLE3=Sons Of The Silent Age
TTITLE4=Blackout
TTITLE5=V-2 Schneider
TTITLE6=Sense Of Doubt
TTITLE7=Moss Garden
TTITLE8=Neuköln
TTITLE9=The Secret Life Of Arabia
EXTD=YEAR: 1977
EXTT0=
EXTT1=
EXTT2=
EXTT3=
EXTT4=
EXTT5=
EXTT6=
EXTT7=
EXTT8=
EXTT9=
PLAYORDER=
